HIERARCHY
ROOT Hips
{
	OFFSET 0.00000 0.00000 0.00000
	CHANNELS 6 Xposition Yposition Zposition Zrotation Yrotation Xrotation 
	JOINT LHipJoint
	{
		OFFSET 0 0 0
		CHANNELS 3 Zrotation Yrotation Xrotation
		JOINT LeftUpLeg
		{
			OFFSET 1.62964 -1.40469 0.78906
			CHANNELS 3 Zrotation Yrotation Xrotation
			JOINT LeftLeg
			{
				OFFSET 2.29640 -6.30932 0.00000
				CHANNELS 3 Zrotation Yrotation Xrotation
				JOINT LeftFoot
				{
					OFFSET 2.29451 -6.30412 0.00000
					CHANNELS 3 Zrotation Yrotation Xrotation
					JOINT LeftToeBase
					{
						OFFSET 0.03611 -0.09921 1.56387
						CHANNELS 3 Zrotation Yrotation Xrotation
						End Site
						{
							OFFSET 0.00000 -0.00000 0.80291
						}
					}
				}
			}
		}
	}
	JOINT RHipJoint
	{
		OFFSET 0 0 0
		CHANNELS 3 Zrotation Yrotation Xrotation
		JOINT RightUpLeg
		{
			OFFSET -1.73712 -1.40469 0.78906
			CHANNELS 3 Zrotation Yrotation Xrotation
			JOINT RightLeg
			{
				OFFSET -2.28137 -6.26801 0.00000
				CHANNELS 3 Zrotation Yrotation Xrotation
				JOINT RightFoot
				{
					OFFSET -2.28681 -6.28298 0.00000
					CHANNELS 3 Zrotation Yrotation Xrotation
					JOINT RightToeBase
					{
						OFFSET -0.15927 -0.43759 1.61103
						CHANNELS 3 Zrotation Yrotation Xrotation
						End Site
						{
							OFFSET -0.00000 -0.00000 0.84630
						}
					}
				}
			}
		}
	}
	JOINT LowerBack
	{
		OFFSET 0 0 0
		CHANNELS 3 Zrotation Yrotation Xrotation
		JOINT Spine
		{
			OFFSET -0.04227 2.04338 -0.00225
			CHANNELS 3 Zrotation Yrotation Xrotation
			JOINT Spine1
			{
				OFFSET -0.02148 2.04482 -0.04273
				CHANNELS 3 Zrotation Yrotation Xrotation
				JOINT Neck
				{
					OFFSET 0 0 0
					CHANNELS 3 Zrotation Yrotation Xrotation
					JOINT Neck1
					{
						OFFSET 0.09180 1.44629 0.19359
						CHANNELS 3 Zrotation Yrotation Xrotation
						JOINT Head
						{
							OFFSET 0.00887 1.40645 0.14750
							CHANNELS 3 Zrotation Yrotation Xrotation
							End Site
							{
								OFFSET -0.00669 1.50671 0.03707
							}
						}
					}
				}
				JOINT LeftShoulder
				{
					OFFSET 0 0 0
					CHANNELS 3 Zrotation Yrotation Xrotation
					JOINT LeftArm
					{
						OFFSET 2.17674 1.86763 -0.06520
						CHANNELS 3 Zrotation Yrotation Xrotation
						JOINT LeftForeArm
						{
							OFFSET 4.65776 -0.00000 0.00000
							CHANNELS 3 Zrotation Yrotation Xrotation
							JOINT LeftHand
							{
								OFFSET 3.55539 -0.00000 0.00000
								CHANNELS 3 Zrotation Yrotation Xrotation
								JOINT LeftFingerBase
								{
									OFFSET 0 0 0
									CHANNELS 3 Zrotation Yrotation Xrotation
									JOINT LeftHandIndex1
									{
										OFFSET 0.70726 -0.00000 0.00000
										CHANNELS 3 Zrotation Yrotation Xrotation
										End Site
										{
											OFFSET 0.57022 -0.00000 0.00000
										}
									}
								}
								JOINT LThumb
								{
									OFFSET 0 0 0
									CHANNELS 3 Zrotation Yrotation Xrotation
									End Site
									{
										OFFSET 0.57892 -0.00000 0.57892
									}
								}
							}
						}
					}
				}
				JOINT RightShoulder
				{
					OFFSET 0 0 0
					CHANNELS 3 Zrotation Yrotation Xrotation
					JOINT RightArm
					{
						OFFSET -2.80694 1.55459 -0.32496
						CHANNELS 3 Zrotation Yrotation Xrotation
						JOINT RightForeArm
						{
							OFFSET -4.71925 -0.00000 -0.00000
							CHANNELS 3 Zrotation Yrotation Xrotation
							JOINT RightHand
							{
								OFFSET -3.56990 -0.00000 0.00000
								CHANNELS 3 Zrotation Yrotation Xrotation
								JOINT RightFingerBase
								{
									OFFSET 0 0 0
									CHANNELS 3 Zrotation Yrotation Xrotation
									JOINT RightHandIndex1
									{
										OFFSET -0.50776 -0.00000 0.00000
										CHANNELS 3 Zrotation Yrotation Xrotation
										End Site
										{
											OFFSET -0.40937 -0.00000 0.00000
										}
									}
								}
								JOINT RThumb
								{
									OFFSET 0 0 0
									CHANNELS 3 Zrotation Yrotation Xrotation
									End Site
									{
										OFFSET -0.41562 -0.00000 0.41562
									}
								}
							}
						}
					}
				}
			}
		}
	}
}
MOTION
Frames: 15
Frame Time: .0083333
8.1563 16.2369 8.1718 178.2910 -1.6103 -158.6300 0.0000 0.0000 0.0000 -21.9926 -15.8659 -17.2003 0.5814 4.8824 13.5734 0.2439 -5.5772 -9.0363 2.0498 -8.9691 -25.6986 0.0000 0.0000 0.0000 9.0501 18.1663 -41.6478 -1.3455 -7.3439 20.7382 -0.5859 -6.5844 -18.3415 -4.1430 12.3482 -36.9753 -7.0572 -3.6485 -21.0836 -0.1804 -3.0748 2.3407 2.7687 -2.0021 15.0120 -2.1486 -3.1950 -2.7055 5.4273 -3.9009 19.7997 1.9039 -1.1309 6.6021 -0.0000 -0.0000 0.0000 -81.6925 -2.7741 25.0857 20.2745 -30.9717 -5.6719 -0.0000 0.0000 -0.8733 22.2867 -12.2473 -4.9691 -7.1250 0.0000 -0.0000 -3.4306 16.7923 2.2973 -0.0000 -0.0000 0.0000 91.9521 -10.1372 3.8790 -17.2814 27.2273 -4.2153 0.0000 -0.0000 -0.5720 -10.5467 -51.2504 8.2617 7.1250 -0.0000 -0.0000 61.2837 -74.5637 -46.4977
8.1654 16.2263 8.0772 178.2540 -1.7892 -158.6230 0.0000 0.0000 0.0000 -22.0738 -15.7135 -16.8404 0.5836 4.8915 13.5993 0.2491 -5.8654 -9.1825 2.0656 -9.0015 -25.8000 0.0000 0.0000 0.0000 8.9196 18.3028 -41.0620 -1.1224 -6.7296 18.9167 -0.5414 -6.4209 -17.7136 -4.1707 12.3841 -37.1046 -6.9530 -3.4293 -21.2168 -0.4073 -2.8080 1.9397 2.5481 -1.8519 14.5571 -1.5723 -3.4999 -0.9208 5.4639 -4.2430 19.3757 1.8199 -1.2443 6.1588 0.0000 0.0000 0.0000 -81.0337 -2.0049 25.9760 20.3449 -31.0556 -5.7082 -0.0000 0.0000 -0.6183 22.3557 -12.4465 -5.0654 -7.1250 0.0000 -0.0000 -3.3913 16.5723 2.2872 0.0000 0.0000 0.0000 92.6105 -11.5277 3.1796 -17.3710 27.3443 -4.2564 0.0000 -0.0000 -0.7905 -10.5965 -52.3536 8.4259 7.1250 -0.0000 -0.0000 65.0839 -74.9901 -50.3320
8.1787 16.2183 7.9872 178.1960 -1.9121 -158.6300 0.0000 0.0000 0.0000 -22.1614 -15.5521 -16.4999 0.5874 4.9073 13.6443 0.2585 -6.0324 -9.3670 2.2977 -9.4605 -27.2466 0.0000 0.0000 0.0000 8.8098 18.4404 -40.5524 -0.9428 -6.1842 17.3198 -0.4654 -6.5238 -16.9101 -4.3247 12.5804 -37.8175 -6.9695 -3.7813 -21.1179 -0.1039 -3.2573 2.6690 2.7313 -2.0916 15.4503 -2.1048 -3.2295 -3.9483 5.2405 -3.9998 20.0570 1.8147 -1.1952 6.9040 0.0000 0.0000 0.0000 -81.5134 -3.9529 24.9382 20.1770 -30.8550 -5.6219 -0.0000 0.0000 -0.6515 22.3605 -12.3232 -5.0174 -7.1250 0.0000 -0.0000 -3.3826 16.7039 2.2716 0.0000 0.0000 0.0000 91.8165 -9.5355 3.6643 -16.9410 26.7799 -4.0607 0.0000 -0.0000 -0.4689 -10.8228 -52.0447 8.5721 7.1250 -0.0000 -0.0000 63.8688 -74.9690 -49.2197
8.1920 16.2121 7.8922 178.1260 -1.9093 -158.6980 0.0000 0.0000 0.0000 -22.3005 -15.4307 -16.0172 0.5879 4.9091 13.6495 0.2780 -6.0345 -9.6664 2.4718 -9.7865 -28.2881 0.0000 0.0000 0.0000 8.7401 18.6221 -40.0420 -0.8165 -5.7659 16.1067 -0.4283 -6.5982 -16.5211 -4.3596 12.6242 -37.9775 -7.0886 -3.5779 -21.4239 -0.2980 -2.9299 2.3743 2.6864 -1.9391 15.2319 -1.4378 -3.4539 -2.1709 5.0172 -4.1990 19.7838 1.6412 -1.2443 6.4929 0.0000 0.0000 0.0000 -81.0112 -3.1765 25.9066 20.2555 -30.9489 -5.6621 -0.0000 0.0000 -1.1156 22.1122 -11.6386 -4.6859 -7.1250 0.0000 -0.0000 -3.5279 17.4600 2.3112 0.0000 0.0000 0.0000 92.5124 -10.5989 2.4561 -16.8715 26.6880 -4.0294 0.0000 0.0000 0.0203 -10.9723 -51.1542 8.5868 7.1250 -0.0000 -0.0000 60.6960 -74.6858 -46.1130
8.2061 16.2034 7.7916 178.0550 -2.0253 -158.8160 0.0000 0.0000 0.0000 -22.4402 -15.2792 -15.4834 0.5921 4.9263 13.6984 0.2878 -6.2110 -9.8520 2.4076 -9.6680 -27.9081 0.0000 0.0000 0.0000 8.8560 18.5650 -39.4755 -0.7220 -5.4295 15.1377 -0.3992 -6.6713 -16.2195 -4.4432 12.7279 -38.3581 -7.1474 -3.6691 -21.5247 -0.2444 -3.0309 2.4154 2.7405 -1.9950 15.3606 -1.5049 -3.3880 -2.0203 5.0200 -4.0857 19.8280 1.6634 -1.1889 6.4781 0.0000 -0.0000 0.0000 -81.0498 -3.0997 25.8541 20.3262 -31.0333 -5.6985 -0.0000 0.0000 -1.4433 21.7919 -11.0618 -4.3866 -7.1250 0.0000 -0.0000 -3.7325 18.1049 2.3929 0.0000 -0.0000 0.0000 92.4269 -10.6533 2.0248 -16.6297 26.3670 -3.9215 0.0000 0.0000 0.5658 -10.8972 -51.2962 8.5442 7.1250 -0.0000 -0.0000 61.2253 -74.7146 -46.6071
8.2292 16.2031 7.7233 177.7520 -1.9191 -159.1580 0.0000 0.0000 0.0000 -22.7493 -15.0583 -15.0261 0.6151 5.0196 13.9643 0.2944 -6.2817 -9.9645 2.3562 -9.5716 -27.6003 0.0000 0.0000 0.0000 8.6019 18.8073 -38.8719 -0.6660 -5.2191 14.5346 -0.3328 -7.1949 -15.8434 -4.7524 13.0994 -39.7416 -7.6212 -3.6557 -20.8129 -0.2782 -2.9566 2.2989 3.0280 -1.9883 14.8188 -1.4581 -3.3774 -1.4745 5.0602 -4.0445 19.6543 1.6777 -1.1630 6.3259 0.0000 -0.0000 0.0000 -80.9095 -2.8427 26.0301 20.3994 -31.1206 -5.7364 -0.0000 0.0000 -1.5870 21.7685 -11.7819 -4.6615 -7.1250 0.0000 -0.0000 -3.7734 17.3384 2.4828 0.0000 -0.0000 0.0000 92.4277 -11.0636 1.7496 -16.5724 26.2906 -3.8960 0.0000 0.0000 0.6904 -10.2813 -52.3228 8.1700 7.1250 -0.0000 -0.0000 65.1360 -74.8604 -50.2377
8.2469 16.1962 7.6232 177.6840 -1.9796 -159.2780 0.0000 0.0000 0.0000 -22.8558 -14.8632 -14.5742 0.6231 5.0513 14.0549 0.3047 -6.4097 -10.1425 2.6010 -10.0193 -29.0392 0.0000 0.0000 0.0000 8.8208 18.7398 -38.2584 -0.6094 -4.9965 13.8986 -0.3061 -7.3202 -15.6081 -4.8337 13.1941 -40.0993 -7.6778 -3.6413 -20.6985 -0.2654 -2.9433 2.1845 3.0874 -1.9816 14.6167 -1.8201 -3.6584 -1.5099 5.3448 -4.4177 20.0965 1.8110 -1.3186 6.5013 0.0000 0.0000 0.0000 -80.8059 -2.6599 26.0144 20.3501 -31.0618 -5.7109 -0.0000 0.0000 -1.2511 22.3865 -12.6718 -5.1630 -7.1250 0.0000 -0.0000 -3.3801 16.3281 2.2975 0.0000 0.0000 0.0000 92.4295 -11.5355 1.6117 -16.5956 26.3216 -3.9063 0.0000 0.0000 0.6519 -9.7385 -52.7656 7.7808 7.1250 -0.0000 -0.0000 66.9723 -74.7998 -51.8312
8.2552 16.1762 7.4883 177.9190 -2.1408 -159.0560 0.0000 0.0000 0.0000 -22.7041 -14.7806 -14.1948 0.6192 5.0358 14.0107 0.3251 -6.5494 -10.4617 2.8056 -10.3735 -30.1950 0.0000 0.0000 0.0000 9.6251 18.2438 -37.9834 -0.5689 -4.8306 13.4262 -0.3333 -6.8099 -15.4867 -4.6314 12.9563 -39.2050 -7.2039 -3.7605 -21.5528 -0.1033 -3.1457 2.4796 2.8918 -2.0611 15.4824 -1.8138 -3.4336 -2.6453 5.0635 -4.1314 20.4247 1.7235 -1.2018 6.7887 0.0000 0.0000 0.0000 -81.0280 -3.2639 25.4199 20.2900 -30.9901 -5.6799 -0.0000 0.0000 -1.1606 22.8784 -12.5369 -5.2335 -7.1250 0.0000 -0.0000 -3.0331 16.4230 2.0547 0.0000 0.0000 0.0000 92.1406 -10.8752 1.6181 -16.3827 26.0368 -3.8124 0.0000 0.0000 0.9021 -9.9188 -52.5034 7.8986 7.1250 -0.0000 -0.0000 65.9576 -74.7839 -50.8943
8.2697 16.1614 7.3868 178.0670 -2.1823 -158.7980 0.0000 0.0000 0.0000 -22.4968 -14.8261 -14.2780 0.6590 5.1920 14.4570 0.3473 -6.6274 -10.7849 2.6608 -10.1246 -29.3813 0.0000 0.0000 0.0000 10.2114 17.9451 -38.2179 -0.5859 -4.9011 13.6268 -0.3200 -6.6426 -15.1494 -4.6638 12.9948 -39.3492 -6.9151 -3.9426 -22.0247 0.0972 -3.4371 2.6954 2.8285 -2.1881 16.0555 -2.1393 -3.1805 -3.7886 4.9693 -3.8044 20.7476 1.7580 -1.0800 7.0876 0.0000 0.0000 0.0000 -81.4086 -3.6955 24.7432 20.3800 -31.0974 -5.7263 -0.0000 0.0000 -1.7523 22.9183 -12.3217 -5.1555 -7.1250 0.0000 -0.0000 -2.9952 16.6501 2.0142 0.0000 0.0000 0.0000 91.7142 -10.1315 1.8622 -16.1503 25.7240 -3.7109 0.0000 0.0000 1.2633 -10.3053 -52.0770 8.1624 7.1250 -0.0000 -0.0000 64.2607 -74.7845 -49.3702
8.2869 16.1486 7.2878 178.1620 -2.2569 -158.6550 0.0000 0.0000 0.0000 -22.3315 -14.7887 -14.2859 0.7020 5.3553 14.9249 0.3598 -6.8308 -10.9956 2.3901 -9.6352 -27.8033 0.0000 0.0000 0.0000 10.8306 17.5283 -38.2660 -0.6077 -4.9898 13.8796 -0.2686 -6.5302 -14.3124 -5.0979 13.4933 -41.2442 -6.7794 -3.6842 -22.3891 -0.0722 -3.1151 2.2251 2.6719 -2.0125 15.6370 -1.4124 -3.4130 -1.9572 4.7736 -4.0163 20.4494 1.5813 -1.1221 6.6577 0.0000 0.0000 0.0000 -80.9371 -2.5882 25.3201 20.5505 -31.2999 -5.8146 -0.0000 0.0000 -1.2717 22.0227 -11.7007 -4.6895 -7.1250 0.0000 -0.0000 -3.5928 17.4018 2.3585 0.0000 0.0000 0.0000 92.4230 -11.4771 0.9598 -16.2594 25.8711 -3.7584 0.0000 0.0000 1.4829 -10.2856 -51.6228 8.0967 7.1250 -0.0000 -0.0000 62.7033 -74.6106 -47.7975
8.3079 16.1377 7.1901 178.0390 -2.2380 -158.7350 0.0000 0.0000 0.0000 -22.4435 -14.7715 -14.0204 0.7446 5.5122 15.3753 0.3775 -6.9564 -11.2554 2.2671 -9.4015 -27.0595 0.0000 0.0000 0.0000 11.0449 17.3807 -37.8210 -0.6086 -4.9935 13.8901 -0.2076 -6.5385 -13.3889 -5.3173 13.7325 -42.1763 -6.8930 -3.7347 -22.1977 -0.0096 -3.1800 2.1399 2.7956 -2.0503 15.4397 -1.4133 -3.2247 -1.7752 4.5971 -3.7350 20.1896 1.5423 -1.0152 6.5294 -0.0000 -0.0000 0.0000 -81.0500 -2.3602 25.1878 20.4741 -31.2094 -5.7750 -0.0000 0.0000 -1.5269 22.1684 -11.9756 -4.8325 -7.1250 0.0000 -0.0000 -3.5018 17.0943 2.3221 -0.0000 -0.0000 0.0000 92.2641 -11.6806 0.7723 -16.2054 25.7984 -3.7349 0.0000 0.0000 1.6692 -10.0807 -51.2721 7.8960 7.1250 -0.0000 -0.0000 61.6418 -74.3968 -46.6332
8.3266 16.1243 7.0911 177.9130 -2.2709 -158.6720 0.0000 0.0000 0.0000 -22.5536 -14.8882 -14.0016 0.8058 5.7288 15.9995 0.4058 -6.9866 -11.6259 2.4837 -9.8083 -28.3581 0.0000 0.0000 0.0000 11.1313 17.3202 -37.4929 -0.6088 -4.9943 13.8922 -0.1664 -6.4766 -12.6460 -4.8770 13.2439 -40.2884 -6.8904 -3.7526 -22.1349 -0.0382 -3.1924 2.3124 2.7539 -2.0584 15.6119 -1.4627 -3.2498 -3.2346 4.7248 -3.8626 20.7430 1.5691 -1.0588 6.9722 0.0000 0.0000 0.0000 -80.9296 -2.8476 25.2264 20.3495 -31.0611 -5.7106 -0.0000 0.0000 -1.8969 22.7855 -12.7562 -5.2991 -7.1250 0.0000 -0.0000 -3.1080 16.1970 2.1209 0.0000 0.0000 0.0000 92.2997 -11.0501 0.4706 -16.0817 25.6313 -3.6812 0.0000 0.0000 1.9162 -10.1250 -51.4118 7.9463 7.1250 -0.0000 -0.0000 62.0833 -74.4688 -47.0982
8.3429 16.1081 6.9800 177.8810 -2.4169 -158.4860 0.0000 0.0000 0.0000 -22.5821 -14.9653 -14.0587 0.8691 5.9440 16.6222 0.4372 -7.0426 -12.0296 2.9739 -10.6526 -31.1171 0.0000 0.0000 0.0000 11.4125 17.0506 -37.3310 -0.6166 -5.0256 13.9817 -0.1523 -6.2115 -12.1183 -4.3812 12.6510 -38.0759 -6.7663 -3.9666 -22.6125 0.0791 -3.5029 2.1537 2.6895 -2.1933 15.7358 -1.8196 -3.1839 -2.9271 4.6370 -3.6833 20.9509 1.6198 -0.9925 6.9844 -0.0000 -0.0000 0.0000 -81.1183 -2.2732 24.7275 20.4031 -31.1249 -5.7382 -0.0000 0.0000 -1.8804 22.5353 -12.8839 -5.2860 -7.1250 0.0000 -0.0000 -3.2870 16.0858 2.2513 -0.0000 -0.0000 0.0000 91.9786 -11.2345 0.6376 -15.9894 25.5063 -3.6414 0.0000 0.0000 2.1862 -10.4049 -51.7043 8.2005 7.1250 -0.0000 -0.0000 62.9137 -74.6864 -48.0654
8.3706 16.1046 6.9015 177.6010 -2.3573 -158.6930 0.0000 0.0000 0.0000 -22.8228 -15.0661 -13.9592 0.9678 6.2635 17.5509 0.4741 -6.9836 -12.4697 3.2028 -11.0163 -32.3349 0.0000 0.0000 0.0000 11.1275 17.4105 -36.9129 -0.6458 -5.1408 14.3105 -0.1099 -6.8121 -12.0180 -4.2585 12.4966 -37.5123 -7.0652 -3.9514 -22.2044 0.0020 -3.4254 2.1297 2.8168 -2.1764 15.4732 -1.6646 -3.1237 -2.6566 4.4862 -3.5872 20.6980 1.5520 -0.9575 6.8456 -0.0000 -0.0000 0.0000 -81.0410 -2.1223 24.6254 20.4005 -31.1218 -5.7369 -0.0000 0.0000 -1.7652 21.6892 -12.1463 -4.7837 -7.1250 0.0000 -0.0000 -3.8421 16.9572 2.5603 -0.0000 -0.0000 0.0000 92.1484 -11.1767 0.0737 -15.9309 25.4269 -3.6163 0.0000 0.0000 2.5146 -10.5875 -51.4893 8.3212 7.1250 -0.0000 -0.0000 62.0704 -74.6734 -47.3062
8.3913 16.0942 6.8041 177.6310 -2.3029 -158.8380 0.0000 0.0000 0.0000 -22.7929 -15.2754 -13.7589 1.0666 6.5656 18.4347 0.5133 -6.9272 -12.9250 3.0716 -10.8100 -31.6418 0.0000 0.0000 0.0000 11.2776 17.7047 -36.4095 -0.6525 -5.1670 14.3855 -0.0731 -7.3194 -11.9406 -4.0679 12.2503 -36.6231 -6.9718 -3.7952 -22.1805 -0.0705 -3.2569 1.8761 2.7502 -2.0818 15.1197 -1.5799 -3.2187 -1.4890 4.5990 -3.6660 20.4004 1.5819 -0.9733 6.5481 -0.0000 -0.0000 0.0000 -80.9339 -1.4067 24.7842 20.3644 -31.0789 -5.7183 -0.0000 0.0000 -1.5261 21.7857 -11.9141 -4.7169 -7.1250 0.0000 -0.0000 -3.7663 17.1957 2.4899 -0.0000 -0.0000 0.0000 92.4562 -11.9902 -0.3891 -16.0658 25.6098 -3.6744 0.0000 0.0000 2.3893 -10.7735 -51.4520 8.4644 7.1250 -0.0000 -0.0000 61.8325 -74.7293 -47.1564
